<svg version="1.1" id="Layer_1" xmlns="http://www.w3.org/2000/svg" xmlns:xlink="http://www.w3.org/1999/xlink" x="0px" y="0px"
	 width="100%" viewBox="0 0 512 512" enable-background="new 0 0 512 512" xml:space="preserve">
<path fill="#F0C48A" opacity="1.000000" stroke="none" 
	d="
M279.000000,513.000000 
	C264.645782,513.000000 250.291550,513.000000 235.201218,512.682983 
	C221.927261,510.390076 209.252808,509.033478 196.880966,506.304840 
	C173.646240,501.180298 151.775238,492.300354 131.029831,480.574188 
	C114.683968,471.334839 99.298576,460.702179 85.652679,447.892822 
	C75.390358,438.259613 65.783554,427.822388 56.720589,417.040649 
	C41.076626,398.429718 29.070496,377.528595 19.855764,354.996185 
	C11.363544,334.230469 5.400213,312.846161 2.886986,290.521057 
	C2.452199,286.658875 1.638617,282.839264 1.000001,279.000000 
	C1.000000,264.645782 1.000000,250.291550 1.317021,235.201233 
	C3.609882,221.927338 4.966379,209.252945 7.695037,196.881180 
	C12.819580,173.646439 21.699640,151.775467 33.425747,131.030029 
	C42.665073,114.684120 53.297691,99.298668 66.107040,85.652740 
	C75.740234,75.390404 86.177498,65.783615 96.959267,56.720665 
	C115.570206,41.076664 136.471344,29.070499 159.003769,19.855772 
	C179.769470,11.363552 201.153809,5.400208 223.478943,2.886984 
	C227.341156,2.452199 231.160736,1.638615 235.000000,1.000000 
	C249.354233,1.000000 263.708466,1.000000 278.798767,1.317019 
	C292.072632,3.609865 304.746979,4.966363 317.118683,7.694975 
	C340.353455,12.819462 362.224426,21.699642 382.969879,33.425705 
	C399.315796,42.664997 414.701263,53.297619 428.347198,66.106995 
	C438.609497,75.740196 448.216309,86.177444 457.279266,96.959198 
	C472.923279,115.570137 484.929413,136.471283 494.144165,159.003708 
	C502.636444,179.769440 508.599823,201.153778 511.113068,223.478912 
	C511.547821,227.341141 512.361389,231.160721 513.000000,235.000000 
	C513.000000,249.354233 513.000000,263.708466 512.682983,278.798767 
	C510.390106,292.072601 509.033661,304.746979 506.305054,317.118713 
	C501.180573,340.353485 492.300323,362.224426 480.574280,382.969910 
	C471.334991,399.315826 460.702393,414.701294 447.892975,428.347168 
	C438.259735,438.609497 427.822510,448.216339 417.040741,457.279297 
	C398.429840,472.923309 377.528717,484.929565 354.996246,494.144257 
	C334.230499,502.636414 312.846191,508.599884 290.521027,511.113068 
	C286.658813,511.547821 282.839264,512.361389 279.000000,513.000000 
M213.770935,444.572327 
	C213.850067,442.790009 213.929184,441.007721 214.034836,438.628296 
	C216.557037,438.628296 218.673965,438.628326 220.790909,438.628296 
	C265.789703,438.628204 310.789276,438.756104 355.786346,438.478943 
	C361.959839,438.440918 368.625916,437.523102 374.188965,435.046875 
	C388.405792,428.718719 393.843689,416.542175 393.839722,401.448334 
	C393.813782,302.785522 393.826538,204.122696 393.826294,105.459877 
	C393.826294,98.126747 393.947632,90.791069 393.797729,83.460976 
	C393.399841,64.007462 381.571472,50.392693 362.227600,48.828140 
	C348.482330,47.716412 334.591431,48.332031 320.765259,48.306614 
	C265.935150,48.205811 211.104919,48.104374 156.274750,48.113400 
	C134.899597,48.116917 120.075439,62.634193 120.061775,83.616905 
	C119.992966,189.280655 119.907120,294.944641 120.110985,400.608002 
	C120.140869,416.099121 127.227448,428.301941 141.715225,434.926758 
	C146.898331,437.296844 152.836716,438.015137 158.747269,439.570801 
	C158.673279,439.402527 158.919189,439.703918 158.922745,440.008087 
	C158.986969,445.505951 158.958572,451.005524 159.078186,456.501923 
	C159.254929,464.622589 164.860474,467.711212 171.929993,463.586151 
	C175.813522,461.320068 179.498260,458.675812 183.516159,456.696411 
	C185.077087,455.927460 187.641525,455.854553 189.171570,456.619415 
	C193.476608,458.771484 197.408264,461.655060 201.622543,464.007660 
	C207.676880,467.387482 213.220352,464.431305 213.688095,457.546112 
	C213.958603,453.563995 213.758759,449.549896 213.770935,444.572327 
z"/>
<path fill="#FFFFFF" opacity="1.000000" stroke="none" 
	d="
M234.531342,1.000000 
	C231.160736,1.638615 227.341156,2.452199 223.478943,2.886984 
	C201.153809,5.400208 179.769470,11.363552 159.003769,19.855772 
	C136.471344,29.070499 115.570206,41.076664 96.959267,56.720665 
	C86.177498,65.783615 75.740234,75.390404 66.107040,85.652740 
	C53.297691,99.298668 42.665073,114.684120 33.425747,131.030029 
	C21.699640,151.775467 12.819580,173.646439 7.695037,196.881180 
	C4.966379,209.252945 3.609882,221.927338 1.317021,234.732574 
	C1.000000,157.072952 1.000000,79.145912 1.000000,1.000000 
	C78.687424,1.000000 156.375061,1.000000 234.531342,1.000000 
z"/>
<path fill="#FFFFFF" opacity="1.000000" stroke="none" 
	d="
M513.000000,234.531342 
	C512.361389,231.160721 511.547821,227.341141 511.113068,223.478912 
	C508.599823,201.153778 502.636444,179.769440 494.144165,159.003708 
	C484.929413,136.471283 472.923279,115.570137 457.279266,96.959198 
	C448.216309,86.177444 438.609497,75.740196 428.347198,66.106995 
	C414.701263,53.297619 399.315796,42.664997 382.969879,33.425705 
	C362.224426,21.699642 340.353455,12.819462 317.118683,7.694975 
	C304.746979,4.966363 292.072632,3.609865 279.267456,1.317019 
	C356.927032,1.000000 434.854095,1.000000 513.000000,1.000000 
	C513.000000,78.687424 513.000000,156.375061 513.000000,234.531342 
z"/>
<path fill="#FFFFFF" opacity="1.000000" stroke="none" 
	d="
M1.000001,279.468658 
	C1.638617,282.839264 2.452199,286.658875 2.886986,290.521057 
	C5.400213,312.846161 11.363544,334.230469 19.855764,354.996185 
	C29.070496,377.528595 41.076626,398.429718 56.720589,417.040649 
	C65.783554,427.822388 75.390358,438.259613 85.652679,447.892822 
	C99.298576,460.702179 114.683968,471.334839 131.029831,480.574188 
	C151.775238,492.300354 173.646240,501.180298 196.880966,506.304840 
	C209.252808,509.033478 221.927261,510.390076 234.732559,512.682983 
	C157.072968,513.000000 79.145927,513.000000 1.000000,513.000000 
	C1.000000,435.312561 1.000000,357.624939 1.000001,279.468658 
z"/>
<path fill="#FFFFFF" opacity="1.000000" stroke="none" 
	d="
M279.468658,513.000000 
	C282.839264,512.361389 286.658813,511.547821 290.521027,511.113068 
	C312.846191,508.599884 334.230499,502.636414 354.996246,494.144257 
	C377.528717,484.929565 398.429840,472.923309 417.040741,457.279297 
	C427.822510,448.216339 438.259735,438.609497 447.892975,428.347168 
	C460.702393,414.701294 471.334991,399.315826 480.574280,382.969910 
	C492.300323,362.224426 501.180573,340.353485 506.305054,317.118713 
	C509.033661,304.746979 510.390106,292.072601 512.682983,279.267426 
	C513.000000,356.927032 513.000000,434.854095 513.000000,513.000000 
	C435.312561,513.000000 357.624939,513.000000 279.468658,513.000000 
z"/>
<path fill="#4E4573" opacity="1.000000" stroke="none" 
	d="
M213.770782,445.061279 
	C213.758759,449.549896 213.958603,453.563995 213.688095,457.546112 
	C213.220352,464.431305 207.676880,467.387482 201.622543,464.007660 
	C197.408264,461.655060 193.476608,458.771484 189.171570,456.619415 
	C187.641525,455.854553 185.077087,455.927460 183.516159,456.696411 
	C179.498260,458.675812 175.813522,461.320068 171.929993,463.586151 
	C164.860474,467.711212 159.254929,464.622589 159.078186,456.501923 
	C158.958572,451.005524 158.986969,445.505951 158.922745,440.008087 
	C158.919189,439.703918 158.673279,439.402527 158.747269,439.570801 
	C152.836716,438.015137 146.898331,437.296844 141.715225,434.926758 
	C127.227448,428.301941 120.140869,416.099121 120.110985,400.608002 
	C119.907120,294.944641 119.992966,189.280655 120.061775,83.616905 
	C120.075439,62.634193 134.899597,48.116917 156.274750,48.113400 
	C211.104919,48.104374 265.935150,48.205811 320.765259,48.306614 
	C334.591431,48.332031 348.482330,47.716412 362.227600,48.828140 
	C381.571472,50.392693 393.399841,64.007462 393.797729,83.460976 
	C393.947632,90.791069 393.826294,98.126747 393.826294,105.459877 
	C393.826538,204.122696 393.813782,302.785522 393.839722,401.448334 
	C393.843689,416.542175 388.405792,428.718719 374.188965,435.046875 
	C368.625916,437.523102 361.959839,438.440918 355.786346,438.478943 
	C310.789276,438.756104 265.789703,438.628204 220.790909,438.628296 
	C218.673965,438.628326 216.557037,438.628296 214.034836,438.628296 
	C213.929184,441.007721 213.850067,442.790009 213.770782,445.061279 
M345.039062,380.095856 
	C286.057739,380.089203 227.076401,380.081879 168.095078,380.077545 
	C164.929504,380.077301 161.758957,379.991547 158.599213,380.133972 
	C142.251480,380.871063 135.227600,391.067413 135.358505,403.760651 
	C135.476822,415.231476 146.165314,423.903381 159.066254,423.386719 
	C159.066254,416.953583 159.010437,410.488403 159.081635,404.024597 
	C159.155838,397.287781 161.738937,394.488495 168.407394,394.420319 
	C182.063629,394.280670 195.722107,394.357788 209.379669,394.354279 
	C217.043839,394.352325 224.708084,394.350372 232.372101,394.388763 
	C234.030090,394.397064 235.706528,394.452911 237.341003,394.704437 
	C241.620529,395.362915 243.978394,398.123016 243.735107,402.264984 
	C243.493286,406.382050 240.904373,409.032898 236.549011,409.101257 
	C229.103500,409.218140 221.654846,409.133545 214.155884,409.133545 
	C214.155884,414.347412 214.155884,418.884766 214.155884,423.768127 
	C227.697861,423.768127 240.835327,423.786377 253.972733,423.764435 
	C284.625336,423.713226 315.277954,423.642731 346.857574,423.762756 
	C351.012085,423.765472 355.172211,423.908905 359.319977,423.743011 
	C369.393799,423.339996 377.200745,417.823730 378.212250,408.617279 
	C379.231812,399.337372 378.436798,389.858124 378.436798,380.220825 
	C367.498199,380.220825 356.731262,380.220825 345.039062,380.095856 
M347.860107,364.971527 
	C358.109375,364.971527 368.358673,364.971527 378.926605,364.971527 
	C378.926605,362.404663 378.926605,360.590851 378.926605,358.777069 
	C378.926605,267.808075 378.926941,176.839066 378.924011,85.870056 
	C378.923981,84.370987 378.963043,82.866104 378.851746,81.373795 
	C378.133667,71.745155 371.920776,64.745842 362.324982,63.591629 
	C357.244293,62.980511 352.034637,63.441933 345.976532,63.242756 
	C288.739227,63.242756 231.501923,63.242756 174.296127,63.242756 
	C174.296127,164.168289 174.296127,264.395996 174.296127,365.017883 
	C176.554916,365.017883 178.520767,365.017853 180.486618,365.017853 
	C232.136398,365.017853 283.786194,365.022034 335.435974,365.009338 
	C339.263947,365.008423 343.091949,364.886383 347.860107,364.971527 
M159.063828,199.500000 
	C159.063828,154.264282 159.063828,109.028557 159.063828,63.617889 
	C151.412598,63.046635 145.083252,64.200912 140.152664,69.575150 
	C135.784164,74.336700 135.138565,80.252045 135.139130,86.359543 
	C135.147705,179.644424 135.145081,272.929291 135.145050,366.214172 
	C135.145050,367.814484 135.145050,369.414764 135.145050,370.524231 
	C143.119064,368.196503 150.787201,365.958069 159.063873,363.542023 
	C159.063873,309.712769 159.063873,255.106384 159.063828,199.500000 
M183.331894,439.395264 
	C188.400085,440.590668 193.468277,441.786072 198.869904,443.060150 
	C198.869904,432.936371 198.911880,422.326111 198.788727,411.717773 
	C198.779068,410.885590 197.633377,409.363403 196.989441,409.349121 
	C189.426254,409.181885 181.858032,409.241821 174.368637,409.241821 
	C174.368637,421.294769 174.368637,432.493988 174.368637,444.454895 
	C177.523087,442.662048 180.074402,441.211975 183.331894,439.395264 
z"/>
<path fill="#D3E6F8" opacity="1.000000" stroke="none" 
	d="
M346.919922,364.820618 
	C343.091949,364.886383 339.263947,365.008423 335.435974,365.009338 
	C283.786194,365.022034 232.136398,365.017853 180.486618,365.017853 
	C178.520767,365.017853 176.554916,365.017883 174.296127,365.017883 
	C174.296127,264.395996 174.296127,164.168289 174.296127,63.242756 
	C231.501923,63.242756 288.739227,63.242756 346.437378,63.771927 
	C346.895050,114.329025 346.891907,164.356949 346.587738,214.215668 
	C339.951660,207.672211 333.615906,201.298630 327.281830,194.923386 
	C324.701324,192.326096 322.189789,189.656006 319.528778,187.144119 
	C316.478333,184.264618 313.059784,183.680435 309.702362,186.526398 
	C306.880524,188.918381 307.070068,192.965485 309.992676,196.307312 
	C311.414246,197.932770 312.980072,199.437393 314.536865,200.938354 
	C321.184692,207.347961 327.853516,213.735794 335.217773,220.806656 
	C332.659943,222.924500 331.014038,224.083862 329.609314,225.485016 
	C323.010651,232.066925 316.427368,238.666046 309.945953,245.362946 
	C307.159515,248.242020 306.762421,251.601990 309.401764,254.792999 
	C311.829681,257.728485 315.794739,257.639099 319.181213,254.766235 
	C320.446228,253.693039 321.556641,252.437119 322.732819,251.259827 
	C330.487946,243.497360 338.241760,235.733597 346.232300,228.311554 
	C346.628693,230.127289 346.928162,231.601654 346.928680,233.076126 
	C346.943970,276.990967 346.929596,320.905792 346.919922,364.820618 
M202.565643,230.929108 
	C205.259735,233.655472 207.952438,236.383224 210.648239,239.107910 
	C215.688202,244.201843 220.691605,249.332794 225.785629,254.372086 
	C228.768066,257.322479 232.133926,258.100464 235.563400,255.147003 
	C238.689835,252.454483 238.500061,248.784027 235.154312,245.018860 
	C233.717392,243.401810 232.140610,241.906128 230.590500,240.393066 
	C224.067078,234.025558 217.529739,227.672287 210.076340,220.417145 
	C212.587097,218.525497 214.354446,217.481705 215.767273,216.080429 
	C222.392975,209.508957 229.009888,202.923706 235.446243,196.168350 
	C238.608841,192.849014 238.585892,188.912292 235.586090,186.436615 
	C232.414017,183.818817 229.129608,184.253159 226.103333,186.887604 
	C225.100006,187.761017 224.193466,188.747086 223.257904,189.696640 
	C216.240158,196.819214 209.227829,203.947128 202.210709,211.070328 
	C192.650482,220.775085 192.648575,220.876389 202.565643,230.929108 
M296.969604,196.473831 
	C297.608276,194.763184 298.929596,192.960571 298.714691,191.364899 
	C298.439270,189.320084 297.359741,186.390259 295.836487,185.764114 
	C294.027283,185.020432 291.163361,185.892639 289.173767,186.893860 
	C287.979431,187.494904 287.484772,189.637939 286.841125,191.158020 
	C280.880249,205.235977 274.948303,219.326233 269.023804,233.419571 
	C266.834259,238.628082 264.607758,243.823349 262.548767,249.083633 
	C261.242218,252.421539 262.367126,255.612396 265.691193,256.244385 
	C267.846985,256.654236 270.690796,254.969681 272.787323,253.567245 
	C273.954224,252.786682 274.246613,250.671646 274.890137,249.139954 
	C282.163208,231.828583 289.427887,214.513687 296.969604,196.473831 
z"/>
<path fill="#A4CEF1" opacity="1.000000" stroke="none" 
	d="
M347.390015,364.896057 
	C346.929596,320.905792 346.943970,276.990967 346.928680,233.076126 
	C346.928162,231.601654 346.628693,230.127289 346.370483,227.994812 
	C351.415558,222.008102 351.490601,220.431580 346.888763,214.384872 
	C346.891907,164.356949 346.895050,114.329025 346.890686,63.860130 
	C352.034637,63.441933 357.244293,62.980511 362.324982,63.591629 
	C371.920776,64.745842 378.133667,71.745155 378.851746,81.373795 
	C378.963043,82.866104 378.923981,84.370987 378.924011,85.870056 
	C378.926941,176.839066 378.926605,267.808075 378.926605,358.777069 
	C378.926605,360.590851 378.926605,362.404663 378.926605,364.971527 
	C368.358673,364.971527 358.109375,364.971527 347.390015,364.896057 
z"/>
<path fill="#FB909E" opacity="1.000000" stroke="none" 
	d="
M159.063843,200.000000 
	C159.063873,255.106384 159.063873,309.712769 159.063873,363.542023 
	C150.787201,365.958069 143.119064,368.196503 135.145050,370.524231 
	C135.145050,369.414764 135.145050,367.814484 135.145050,366.214172 
	C135.145081,272.929291 135.147705,179.644424 135.139130,86.359543 
	C135.138565,80.252045 135.784164,74.336700 140.152664,69.575150 
	C145.083252,64.200912 151.412598,63.046635 159.063828,63.617889 
	C159.063828,109.028557 159.063828,154.264282 159.063843,200.000000 
z"/>
<path fill="#FEFEFF" opacity="1.000000" stroke="none" 
	d="
M345.930573,423.580017 
	C315.277954,423.642731 284.625336,423.713226 253.972733,423.764435 
	C240.835327,423.786377 227.697861,423.768127 214.155884,423.768127 
	C214.155884,418.884766 214.155884,414.347412 214.155884,409.133545 
	C221.654846,409.133545 229.103500,409.218140 236.549011,409.101257 
	C240.904373,409.032898 243.493286,406.382050 243.735107,402.264984 
	C243.978394,398.123016 241.620529,395.362915 237.341003,394.704437 
	C235.706528,394.452911 234.030090,394.397064 232.372101,394.388763 
	C224.708084,394.350372 217.043839,394.352325 209.379669,394.354279 
	C195.722107,394.357788 182.063629,394.280670 168.407394,394.420319 
	C161.738937,394.488495 159.155838,397.287781 159.081635,404.024597 
	C159.010437,410.488403 159.066254,416.953583 159.066254,423.386719 
	C146.165314,423.903381 135.476822,415.231476 135.358505,403.760651 
	C135.227600,391.067413 142.251480,380.871063 158.599213,380.133972 
	C161.758957,379.991547 164.929504,380.077301 168.095078,380.077545 
	C227.076401,380.081879 286.057739,380.089203 345.521027,380.612427 
	C345.978851,395.279327 345.954712,409.429657 345.930573,423.580017 
z"/>
<path fill="#D3E2F2" opacity="1.000000" stroke="none" 
	d="
M346.394073,423.671387 
	C345.954712,409.429657 345.978851,395.279327 345.983673,380.674896 
	C356.731262,380.220825 367.498199,380.220825 378.436798,380.220825 
	C378.436798,389.858124 379.231812,399.337372 378.212250,408.617279 
	C377.200745,417.823730 369.393799,423.339996 359.319977,423.743011 
	C355.172211,423.908905 351.012085,423.765472 346.394073,423.671387 
z"/>
<path fill="#7AA9EE" opacity="1.000000" stroke="none" 
	d="
M182.978821,439.578583 
	C180.074402,441.211975 177.523087,442.662048 174.368637,444.454895 
	C174.368637,432.493988 174.368637,421.294769 174.368637,409.241821 
	C181.858032,409.241821 189.426254,409.181885 196.989441,409.349121 
	C197.633377,409.363403 198.779068,410.885590 198.788727,411.717773 
	C198.911880,422.326111 198.869904,432.936371 198.869904,443.060150 
	C193.468277,441.786072 188.400085,440.590668 182.978821,439.578583 
z"/>
<path fill="#4E4674" opacity="1.000000" stroke="none" 
	d="
M202.316849,230.676956 
	C192.648575,220.876389 192.650482,220.775085 202.210709,211.070328 
	C209.227829,203.947128 216.240158,196.819214 223.257904,189.696640 
	C224.193466,188.747086 225.100006,187.761017 226.103333,186.887604 
	C229.129608,184.253159 232.414017,183.818817 235.586090,186.436615 
	C238.585892,188.912292 238.608841,192.849014 235.446243,196.168350 
	C229.009888,202.923706 222.392975,209.508957 215.767273,216.080429 
	C214.354446,217.481705 212.587097,218.525497 210.076340,220.417145 
	C217.529739,227.672287 224.067078,234.025558 230.590500,240.393066 
	C232.140610,241.906128 233.717392,243.401810 235.154312,245.018860 
	C238.500061,248.784027 238.689835,252.454483 235.563400,255.147003 
	C232.133926,258.100464 228.768066,257.322479 225.785629,254.372086 
	C220.691605,249.332794 215.688202,244.201843 210.648239,239.107910 
	C207.952438,236.383224 205.259735,233.655472 202.316849,230.676956 
z"/>
<path fill="#4E4674" opacity="1.000000" stroke="none" 
	d="
M346.587738,214.215668 
	C351.490601,220.431580 351.415558,222.008102 346.134186,227.653503 
	C338.241760,235.733597 330.487946,243.497360 322.732819,251.259827 
	C321.556641,252.437119 320.446228,253.693039 319.181213,254.766235 
	C315.794739,257.639099 311.829681,257.728485 309.401764,254.792999 
	C306.762421,251.601990 307.159515,248.242020 309.945953,245.362946 
	C316.427368,238.666046 323.010651,232.066925 329.609314,225.485016 
	C331.014038,224.083862 332.659943,222.924500 335.217773,220.806656 
	C327.853516,213.735794 321.184692,207.347961 314.536865,200.938354 
	C312.980072,199.437393 311.414246,197.932770 309.992676,196.307312 
	C307.070068,192.965485 306.880524,188.918381 309.702362,186.526398 
	C313.059784,183.680435 316.478333,184.264618 319.528778,187.144119 
	C322.189789,189.656006 324.701324,192.326096 327.281830,194.923386 
	C333.615906,201.298630 339.951660,207.672211 346.587738,214.215668 
z"/>
<path fill="#4F4775" opacity="1.000000" stroke="none" 
	d="
M296.832214,196.836792 
	C289.427887,214.513687 282.163208,231.828583 274.890137,249.139954 
	C274.246613,250.671646 273.954224,252.786682 272.787323,253.567245 
	C270.690796,254.969681 267.846985,256.654236 265.691193,256.244385 
	C262.367126,255.612396 261.242218,252.421539 262.548767,249.083633 
	C264.607758,243.823349 266.834259,238.628082 269.023804,233.419571 
	C274.948303,219.326233 280.880249,205.235977 286.841125,191.158020 
	C287.484772,189.637939 287.979431,187.494904 289.173767,186.893860 
	C291.163361,185.892639 294.027283,185.020432 295.836487,185.764114 
	C297.359741,186.390259 298.439270,189.320084 298.714691,191.364899 
	C298.929596,192.960571 297.608276,194.763184 296.832214,196.836792 
z"/>
</svg>